<?xml version="1.0" encoding="UTF-8" standalone="no"?>
<!-- Generator: Adobe Illustrator 15.1.0, SVG Export Plug-In . SVG Version: 6.00 Build 0)  -->

<svg
   xmlns:dc="http://purl.org/dc/elements/1.1/"
   xmlns:cc="http://creativecommons.org/ns#"
   xmlns:rdf="http://www.w3.org/1999/02/22-rdf-syntax-ns#"
   xmlns:svg="http://www.w3.org/2000/svg"
   xmlns="http://www.w3.org/2000/svg"
   xmlns:sodipodi="http://sodipodi.sourceforge.net/DTD/sodipodi-0.dtd"
   xmlns:inkscape="http://www.inkscape.org/namespaces/inkscape"
   version="1.1"
   x="0px"
   y="0px"
   width="24"
   height="24"
   viewBox="0 0 23.999999 24"
   xml:space="preserve"
   id="svg14416"
   inkscape:version="0.91 r13725"
   sodipodi:docname="humidity_icon.svg"><metadata
     id="metadata14430"><rdf:RDF><cc:Work
         rdf:about=""><dc:format>image/svg+xml</dc:format><dc:type
           rdf:resource="http://purl.org/dc/dcmitype/StillImage" /><dc:title></dc:title></cc:Work></rdf:RDF></metadata><defs
     id="defs14428" /><sodipodi:namedview
     pagecolor="#ffffff"
     bordercolor="#666666"
     borderopacity="1"
     objecttolerance="10"
     gridtolerance="10"
     guidetolerance="10"
     inkscape:pageopacity="0"
     inkscape:pageshadow="2"
     inkscape:window-width="1920"
     inkscape:window-height="1031"
     id="namedview14426"
     showgrid="false"
     inkscape:zoom="17.763086"
     inkscape:cx="12.047456"
     inkscape:cy="12.047457"
     inkscape:window-x="0"
     inkscape:window-y="21"
     inkscape:window-maximized="1"
     inkscape:current-layer="svg14416"
     fit-margin-top="0"
     fit-margin-left="0"
     fit-margin-right="0"
     fit-margin-bottom="0" /><g
     id="Layer_1"
     transform="matrix(0,-0.67766943,0.67766943,0,-20.480677,22.795254)"
     style="fill:#ffffff" /><g
     id="book_x5F_alt"
     transform="matrix(0,-0.67766943,0.67766943,0,1.2047456,22.795254)"
     style="fill:#ffffff"><g
       id="g14420"
       style="fill:#ffffff"><rect
         x="11.988"
         y="8"
         style="fill:#ffffff"
         width="7.9920001"
         height="4.0310001"
         id="rect14422" /><path
         style="fill:#ffffff"
         d="M 27.973,8.047 32,4.016 27.973,4.016 27.973,0 3.996,0 C 1.789,0 0,1.789 0,4 l 0,24 c 0,2.211 1.789,4 3.996,4 l 23.977,0 0,-19.953 3.996,0 -3.996,-4 z M 23.977,28 7.992,28 l 0,-24 15.984,0 0,24 z"
         id="path14424"
         inkscape:connector-curvature="0" /></g></g></svg>