<?xml version="1.0" encoding="UTF-8" standalone="no"?>
<!-- Generator: Adobe Illustrator 15.1.0, SVG Export Plug-In . SVG Version: 6.00 Build 0)  -->

<svg
   xmlns:dc="http://purl.org/dc/elements/1.1/"
   xmlns:cc="http://creativecommons.org/ns#"
   xmlns:rdf="http://www.w3.org/1999/02/22-rdf-syntax-ns#"
   xmlns:svg="http://www.w3.org/2000/svg"
   xmlns="http://www.w3.org/2000/svg"
   xmlns:sodipodi="http://sodipodi.sourceforge.net/DTD/sodipodi-0.dtd"
   xmlns:inkscape="http://www.inkscape.org/namespaces/inkscape"
   version="1.1"
   x="0px"
   y="0px"
   width="12.1984"
   height="24.396799"
   viewBox="0 0 12.1984 24.396799"
   xml:space="preserve"
   id="svg14042"
   inkscape:version="0.91 r13725"
   sodipodi:docname="ir_temp.svg"><metadata
     id="metadata14056"><rdf:RDF><cc:Work
         rdf:about=""><dc:format>image/svg+xml</dc:format><dc:type
           rdf:resource="http://purl.org/dc/dcmitype/StillImage" /><dc:title></dc:title></cc:Work></rdf:RDF></metadata><defs
     id="defs14054" /><sodipodi:namedview
     pagecolor="#ffffff"
     bordercolor="#666666"
     borderopacity="1"
     objecttolerance="10"
     gridtolerance="10"
     guidetolerance="10"
     inkscape:pageopacity="0"
     inkscape:pageshadow="2"
     inkscape:window-width="1920"
     inkscape:window-height="1031"
     id="namedview14052"
     showgrid="false"
     inkscape:zoom="7.375"
     inkscape:cx="6.0992"
     inkscape:cy="12.1984"
     inkscape:window-x="0"
     inkscape:window-y="21"
     inkscape:window-maximized="1"
     inkscape:current-layer="svg14042"
     fit-margin-top="0"
     fit-margin-left="0"
     fit-margin-right="0"
     fit-margin-bottom="0" /><g
     id="Layer_1"
     style="fill:#ffffff"
     transform="matrix(0.7624,0,0,-0.7624,0,24.3968)" /><g
     id="award_x5F_stroke"
     style="fill:#ffffff"
     transform="matrix(0.7624,0,0,-0.7624,0,24.3968)"><g
       id="g14046"
       style="fill:#ffffff"><path
         style="fill:#ffffff"
         d="M 8,20 C 6.59,20 5.258,19.711 4,19.264 L 4,32 8,28 12,32 12,19.264 C 10.742,19.711 9.41,20 8,20 Z"
         id="path14048"
         inkscape:connector-curvature="0" /><path
         style="fill:#ffffff"
         d="M 8,0 C 3.582,0 0,3.582 0,8 c 0,4.418 3.582,8 8,8 4.418,0 8,-3.582 8,-8 C 16,3.582 12.418,0 8,0 Z M 8,12 C 5.789,12 4,10.209 4,8 4,5.791 5.789,4 8,4 c 2.211,0 4,1.791 4,4 0,2.209 -1.789,4 -4,4 z"
         id="path14050"
         inkscape:connector-curvature="0" /></g></g></svg>